<?xml version="1.0" encoding="UTF-8"?>
<!DOCTYPE svg PUBLIC "-//W3C//DTD SVG 1.1//EN" "http://www.w3.org/Graphics/SVG/1.1/DTD/svg11.dtd">
<!-- Creator: CorelDRAW X7 -->
<svg xmlns="http://www.w3.org/2000/svg" xml:space="preserve" width="212px" height="28px" version="1.1" style="shape-rendering:geometricPrecision; text-rendering:geometricPrecision; image-rendering:optimizeQuality; fill-rule:evenodd; clip-rule:evenodd"
viewBox="0 0 212000 27994"
 xmlns:xlink="http://www.w3.org/1999/xlink">
 <defs>
  <style type="text/css">
   <![CDATA[
    .fil2 {fill:#FEFEFE}
    .fil1 {fill:#E2001A}
    .fil0 {fill:black;fill-rule:nonzero}
   ]]>
  </style>
 </defs>
 <g id="Layer_x0020_1">
  <metadata id="CorelCorpID_0Corel-Layer"/>
  <g id="_792843056">
   <path class="fil0" d="M61794 7923c-1771,0 -3285,1490 -3285,3260l0 2807 -4542 0 0 -6067 -154 0c-1771,0 -3286,1490 -3286,3260l0 11114 154 0c1772,0 3286,-1489 3286,-3260l0 -2711 4542 0 0 5971 3438 0 0 -14374 -153 0z"/>
   <path class="fil0" d="M198452 7923c-1771,0 -3285,1490 -3285,3260l0 2807 -4543 0 0 -6067 -154 0c-1771,0 -3285,1490 -3285,3260l0 11114 155 0c1769,0 3284,-1489 3284,-3260l0 -2711 4543 0 0 5971 3437 0 0 -14374 -152 0z"/>
   <path class="fil0" d="M42323 19756c-2104,0 -3494,-3439 -3494,-7470 0,-4029 1466,-6851 3494,-6851 2026,0 3568,2822 3568,6851 0,4563 -1325,7470 -3568,7470zm0 -17093c-3990,0 -6573,3440 -6932,8444l-4061 0 0 -8161 -26 0c-1975,0 -3515,1565 -3515,3490l0 15861 27 0 0 0c1938,-16 3514,-1601 3514,-3568l0 -5056 4061 0c306,4696 2899,8930 6932,8930 4626,0 7084,-4474 7084,-10291 0,-5440 -2617,-9649 -7084,-9649z"/>
   <path class="fil0" d="M74193 7923c-1127,0 -2137,361 -2944,1643l-4485 7803 0 -9446 -3438 0 0 14374 1456 0c1110,0 2121,-359 2944,-1643l4737 -8069 0 6452c0,1771 1513,3260 3283,3260l156 0 0 -14374 -1709 0z"/>
   <path class="fil0" d="M143337 7923c-1126,0 -2140,361 -2943,1643l-4486 7803 0 -9446 -3439 0 0 14374 1458 0c1109,0 2120,-359 2942,-1643l4737 -8069 0 6452c0,1771 1514,3260 3285,3260l152 0 0 -14374 -1706 0z"/>
   <path class="fil0" d="M88113 15288c-796,-1797 -1986,-3080 -3707,-3747l6193 -8596 -3859 0 -5983 8518 0 -8480 -76 0c-1977,0 -3465,1436 -3465,3387l0 15926 77 0c1976,0 3464,-1437 3464,-3387l0 -5907c1771,0 3107,1182 3747,2720l2544 6574 3896 0 -2831 -7008z"/>
   <path class="fil0" d="M156127 7923l-10341 0 0 2748 3478 0 0 11626 154 0c1795,0 3231,-1465 3231,-3235l0 -8391 3478 0 0 -2748z"/>
   <path class="fil0" d="M120507 19679c1592,-1688 2352,-4724 2712,-7057l231 -2079 2669 0 821 9136 -6433 0zm9615 -102l-1181 -11654 -8237 0 -513 3491c-462,3106 -1190,7010 -3973,8675l230 5954 184 0c1356,0 2457,-1100 2457,-2459l46 -1287 9375 0 128 3746 182 0c1359,0 2459,-1100 2459,-2459l121 -3495 -1278 -512z"/>
   <path class="fil0" d="M209774 17702c-762,-1508 -1667,-2660 -3028,-3224l5092 -6554 -3704 0 -4929 6477 0 -6477 -3441 0 0 14372 154 0c1772,0 3287,-1488 3287,-3259l0 -3273c1435,0 2463,1066 3028,2323l2067 4209 3700 0 -2226 -4594z"/>
   <path class="fil0" d="M167461 19930l-2080 -4 0 -6867c437,-103 1207,-250 1874,-250 2488,0 3944,1482 3944,3316 0,1974 -1402,3805 -3738,3805zm154 -9741c-846,0 -1746,144 -2234,272l0 -4514 4557 0c1630,0 2951,-1320 2951,-2950l0 -51 -10946 0 0 19350 5570 0c4169,0 7279,-2249 7279,-6096 0,-3296 -2583,-6011 -7177,-6011z"/>
   <path class="fil0" d="M107156 14109c0,-2541 898,-3901 2822,-3951l130 0c949,0 2720,307 2823,3156l-5775 795zm8752 616c0,-4311 -2080,-6802 -5826,-6802 -3799,0 -6108,2850 -6108,7240 0,4515 2489,7339 6673,7339 2308,0 3926,-565 4798,-1027l0 -2848c-872,616 -2078,1385 -4465,1385 -2155,0 -3337,-1231 -3618,-3567l8546 -1180 0 -540z"/>
   <path class="fil0" d="M183107 20551c-333,78 -1180,128 -1898,128 -1848,0 -2926,-795 -2926,-2566 0,-2387 1822,-3003 4824,-3285l0 5723zm-7879 -2335c0,2696 1977,4286 5774,4286l720 0c1333,0 3542,-206 4492,-386l0 -9136c0,-3593 -2413,-5057 -5314,-5057 -2207,0 -3899,644 -4797,1079l0 2285c1514,-796 2873,-1310 4233,-1310 1643,0 2771,488 2771,2310l0 950c-4284,411 -7879,1283 -7879,4979z"/>
   <path class="fil0" d="M96237 20295c-488,0 -874,-52 -1207,-179l0 -9779c436,-154 872,-231 1437,-231 2234,0 3209,1617 3209,5056 0,2309 -590,5133 -3439,5133zm307 -12371c-1948,0 -3567,333 -4824,1001l-77 52 0 19017 180 0c1770,0 3207,-1462 3207,-3234l0 -2488c488,127 1156,230 1900,230 3720,0 6159,-2977 6159,-7443 0,-4440 -2464,-7135 -6545,-7135z"/>
   <g>
    <path class="fil1" d="M12458 6181c7,-10 14,-21 22,-32 185,-269 108,-469 -16,-576 -78,-69 -1934,-1193 -1934,-1193 -134,-90 -223,-243 -223,-418 0,-275 165,-483 539,-586 1193,-328 5388,-500 6814,-500 494,0 1346,-2 2111,20l-34 -33c-2090,-1785 -4804,-2863 -7768,-2863 -6611,0 -11969,5357 -11969,11968 0,2906 1035,5569 2757,7643 1504,-2163 5216,-7492 6029,-8581 937,-1255 3075,-4045 3436,-4518l18 -22 218 -309z"/>
    <path class="fil1" d="M4671 21455c2020,1556 4550,2481 7298,2481 6610,0 11968,-5358 11968,-11968 0,-2001 -491,-3886 -1358,-5543l1 1c412,-397 887,-1025 575,-1813 -98,-234 -563,-766 -683,-895l17 46c291,879 -285,1430 -699,1804 -227,207 -3266,3072 -6830,6188 -3142,2747 -6655,5542 -8691,7066 -2863,2142 -3420,2454 -3420,2454 -76,41 -202,76 -294,76 -175,0 -327,-78 -423,-204l-3 -3c-15,37 -20,69 -7,91 307,498 816,1073 1113,1073 92,0 219,-35 295,-75 0,0 225,-125 1141,-779z"/>
    <path class="fil2" d="M12475 6149c184,-268 107,-468 -16,-576 -78,-68 -1934,-1193 -1934,-1193 -134,-90 -223,-242 -223,-417 0,-276 165,-483 539,-587 1192,-328 5388,-499 6813,-499 673,0 2006,-5 2883,53 984,64 1731,268 1916,744 365,933 -238,1509 -666,1897 -226,206 -3265,3071 -6829,6187 -3142,2747 -6656,5541 -8691,7066 -2863,2142 -3420,2454 -3420,2454 -76,41 -202,76 -295,76 -296,0 -529,-227 -529,-525 0,-112 34,-218 94,-303 0,0 5637,-8122 6664,-9496 1026,-1372 3488,-4586 3488,-4586 0,0 29,-36 206,-295z"/>
   </g>
  </g>
 </g>
</svg>
